<svg width="291" height="256" viewBox="0 0 291 256" fill="none" xmlns="http://www.w3.org/2000/svg">
<g clip-path="url(#clip0_3_4041)">
<rect x="0.374542" y="-19.2528" width="140.175" height="72.3536" rx="6.96848" fill="#10132E"/>
<path d="M43.4578 22.2134V12.0774H47.2588C48.0375 12.0774 48.6908 12.2127 49.2187 12.4832C49.7499 12.7538 50.1508 13.1332 50.4213 13.6216C50.6952 14.1066 50.8321 14.6724 50.8321 15.3191C50.8321 15.9691 50.6935 16.5333 50.4164 17.0118C50.1425 17.4869 49.7383 17.8548 49.2038 18.1154C48.6693 18.3728 48.0127 18.5015 47.234 18.5015H44.5268V16.9771H46.9866C47.4419 16.9771 47.8148 16.9144 48.1051 16.789C48.3955 16.6604 48.6099 16.4739 48.7485 16.2298C48.8904 15.9823 48.9613 15.6788 48.9613 15.3191C48.9613 14.9595 48.8904 14.6526 48.7485 14.3986C48.6066 14.1412 48.3905 13.9466 48.1002 13.8146C47.8098 13.6793 47.4353 13.6117 46.9767 13.6117H45.294V22.2134H43.4578ZM48.6941 17.6205L51.2033 22.2134H49.1543L46.6896 17.6205H48.6941ZM55.6997 22.3619C54.9375 22.3619 54.2792 22.2035 53.7249 21.8867C53.1739 21.5667 52.7499 21.1147 52.453 20.5306C52.156 19.9433 52.0076 19.2521 52.0076 18.4569C52.0076 17.675 52.156 16.9887 52.453 16.3981C52.7532 15.8042 53.1723 15.3422 53.7101 15.0123C54.2479 14.679 54.8797 14.5124 55.6056 14.5124C56.0742 14.5124 56.5163 14.5883 56.932 14.7401C57.3511 14.8886 57.7206 15.1195 58.0406 15.433C58.364 15.7464 58.618 16.1457 58.8028 16.6307C58.9876 17.1124 59.08 17.6865 59.08 18.353V18.9024H52.8489V17.6948H57.3626C57.3593 17.3516 57.2851 17.0464 57.1399 16.7791C56.9947 16.5086 56.7918 16.2958 56.5311 16.1407C56.2738 15.9856 55.9735 15.9081 55.6304 15.9081C55.2641 15.9081 54.9424 15.9972 54.6653 16.1753C54.3881 16.3502 54.172 16.5812 54.0169 16.8682C53.8652 17.152 53.7876 17.4638 53.7843 17.8036V18.8578C53.7843 19.2999 53.8652 19.6794 54.0268 19.9961C54.1885 20.3096 54.4145 20.5504 54.7049 20.7187C54.9952 20.8837 55.3351 20.9662 55.7244 20.9662C55.9851 20.9662 56.221 20.9299 56.4321 20.8573C56.6433 20.7814 56.8264 20.6709 56.9815 20.5257C57.1366 20.3805 57.2537 20.2007 57.3329 19.9862L59.0057 20.1743C58.9002 20.6164 58.6989 21.0025 58.4019 21.3324C58.1083 21.6591 57.7321 21.9131 57.2735 22.0946C56.8149 22.2728 56.2903 22.3619 55.6997 22.3619ZM62.7832 22.3668C62.3015 22.3668 61.8676 22.281 61.4816 22.1094C61.0988 21.9346 60.7953 21.6772 60.5709 21.3374C60.3499 20.9975 60.2393 20.5785 60.2393 20.0803C60.2393 19.6513 60.3185 19.2966 60.4769 19.0162C60.6353 18.7357 60.8514 18.5114 61.1252 18.3431C61.3991 18.1748 61.7076 18.0478 62.0507 17.962C62.3972 17.8729 62.7552 17.8086 63.1247 17.769C63.5701 17.7228 63.9314 17.6816 64.2086 17.6453C64.4857 17.6057 64.687 17.5463 64.8124 17.4671C64.9411 17.3846 65.0054 17.2576 65.0054 17.086V17.0563C65.0054 16.6835 64.8949 16.3948 64.6738 16.1902C64.4527 15.9856 64.1344 15.8833 63.7186 15.8833C63.2798 15.8833 62.9317 15.979 62.6743 16.1704C62.4203 16.3618 62.2487 16.5878 62.1596 16.8484L60.4868 16.6109C60.6188 16.149 60.8365 15.7629 61.1401 15.4528C61.4436 15.1393 61.8148 14.9051 62.2537 14.75C62.6925 14.5916 63.1775 14.5124 63.7087 14.5124C64.075 14.5124 64.4396 14.5553 64.8025 14.6411C65.1654 14.7269 65.497 14.8688 65.7973 15.0667C66.0975 15.2614 66.3384 15.527 66.5199 15.8635C66.7046 16.2001 66.797 16.6208 66.797 17.1256V22.2134H65.0747V21.1691H65.0153C64.9064 21.3803 64.753 21.5782 64.555 21.763C64.3604 21.9445 64.1146 22.0913 63.8176 22.2035C63.5239 22.3124 63.1792 22.3668 62.7832 22.3668ZM63.2484 21.0503C63.6081 21.0503 63.9199 20.9794 64.1838 20.8375C64.4478 20.6923 64.6507 20.501 64.7926 20.2634C64.9378 20.0258 65.0104 19.7668 65.0104 19.4864V18.5906C64.9543 18.6368 64.8586 18.6796 64.7233 18.7192C64.5913 18.7588 64.4429 18.7935 64.2779 18.8232C64.1129 18.8529 63.9496 18.8793 63.7879 18.9024C63.6262 18.9255 63.486 18.9453 63.3672 18.9617C63.1 18.998 62.8608 19.0574 62.6496 19.1399C62.4384 19.2224 62.2718 19.3379 62.1497 19.4864C62.0276 19.6315 61.9666 19.8196 61.9666 20.0506C61.9666 20.3805 62.087 20.6296 62.3279 20.7979C62.5688 20.9662 62.8756 21.0503 63.2484 21.0503ZM71.9145 22.3619C71.1556 22.3619 70.504 22.1952 69.9596 21.862C69.4185 21.5287 69.0011 21.0685 68.7074 20.4812C68.4171 19.8906 68.2719 19.2109 68.2719 18.4421C68.2719 17.67 68.4204 16.9887 68.7173 16.3981C69.0143 15.8042 69.4333 15.3422 69.9744 15.0123C70.5188 14.679 71.1622 14.5124 71.9046 14.5124C72.5216 14.5124 73.0677 14.6262 73.5428 14.8539C74.0212 15.0783 74.4023 15.3967 74.6861 15.8091C74.9698 16.2182 75.1315 16.6967 75.1711 17.2444H73.4587C73.3894 16.8781 73.2244 16.5729 72.9637 16.3288C72.7064 16.0813 72.3616 15.9576 71.9294 15.9576C71.5631 15.9576 71.2414 16.0566 70.9643 16.2545C70.6871 16.4492 70.471 16.7297 70.3159 17.0959C70.1641 17.4621 70.0882 17.901 70.0882 18.4124C70.0882 18.9304 70.1641 19.3758 70.3159 19.7487C70.4677 20.1182 70.6805 20.4036 70.9544 20.6049C71.2315 20.8029 71.5565 20.9018 71.9294 20.9018C72.1933 20.9018 72.4292 20.8523 72.6371 20.7534C72.8483 20.6511 73.0248 20.5043 73.1667 20.3129C73.3085 20.1215 73.4059 19.8889 73.4587 19.615H75.1711C75.1282 20.1529 74.9698 20.6296 74.696 21.0454C74.4221 21.4578 74.0493 21.7811 73.5774 22.0154C73.1056 22.2464 72.5513 22.3619 71.9145 22.3619ZM80.4383 14.6114V15.9972H76.0681V14.6114H80.4383ZM77.1471 12.7901H78.9387V19.9268C78.9387 20.1677 78.975 20.3525 79.0475 20.4812C79.1234 20.6065 79.2224 20.6923 79.3445 20.7385C79.4666 20.7847 79.6019 20.8078 79.7503 20.8078C79.8625 20.8078 79.9648 20.7996 80.0572 20.7831C80.1529 20.7666 80.2255 20.7517 80.275 20.7385L80.5769 22.1391C80.4812 22.1721 80.3442 22.2084 80.1661 22.248C79.9912 22.2876 79.7767 22.3107 79.5227 22.3173C79.0739 22.3305 78.6698 22.2629 78.3101 22.1144C77.9505 21.9626 77.6651 21.7284 77.4539 21.4116C77.246 21.0949 77.1438 20.6989 77.1471 20.2238V12.7901ZM86.0148 12.0774H87.8361V19.2043C87.8328 19.8576 87.6942 20.4201 87.4204 20.8919C87.1465 21.3605 86.7638 21.7218 86.2722 21.9758C85.7838 22.2266 85.2147 22.352 84.5647 22.352C83.9708 22.352 83.4363 22.2464 82.9611 22.0352C82.4893 21.8207 82.1148 21.504 81.8377 21.085C81.5605 20.6659 81.4219 20.1446 81.4219 19.521H83.2482C83.2515 19.7949 83.3109 20.0308 83.4264 20.2287C83.5451 20.4267 83.7085 20.5785 83.9163 20.6841C84.1242 20.7897 84.3634 20.8424 84.634 20.8424C84.9276 20.8424 85.1767 20.7814 85.3813 20.6593C85.5859 20.5339 85.7409 20.3492 85.8465 20.105C85.9554 19.8609 86.0115 19.5606 86.0148 19.2043V12.0774ZM95.3366 14.8638C95.2904 14.4316 95.0958 14.095 94.7526 13.8542C94.4128 13.6133 93.9706 13.4929 93.4262 13.4929C93.0435 13.4929 92.7152 13.5506 92.4413 13.6661C92.1675 13.7816 91.958 13.9383 91.8128 14.1363C91.6676 14.3342 91.5934 14.5603 91.5901 14.8143C91.5901 15.0255 91.6379 15.2086 91.7336 15.3637C91.8326 15.5188 91.9662 15.6507 92.1345 15.7596C92.3028 15.8652 92.4892 15.9543 92.6937 16.0269C92.8983 16.0995 93.1045 16.1605 93.3124 16.21L94.2626 16.4476C94.6454 16.5366 95.0133 16.6571 95.3663 16.8088C95.7227 16.9606 96.0411 17.152 96.3215 17.383C96.6053 17.6139 96.8296 17.8927 96.9946 18.2194C97.1596 18.546 97.2421 18.9288 97.2421 19.3676C97.2421 19.9615 97.0903 20.4845 96.7867 20.9365C96.4832 21.3852 96.0444 21.7366 95.4703 21.9907C94.8994 22.2414 94.2082 22.3668 93.3965 22.3668C92.608 22.3668 91.9233 22.2447 91.3426 22.0006C90.7652 21.7564 90.3132 21.4001 89.9865 20.9315C89.6632 20.463 89.4883 19.8922 89.4619 19.2191H91.2684C91.2948 19.5722 91.4037 19.8658 91.595 20.1001C91.7864 20.3343 92.0355 20.5092 92.3424 20.6247C92.6525 20.7402 92.9989 20.7979 93.3817 20.7979C93.7809 20.7979 94.1307 20.7385 94.4309 20.6197C94.7345 20.4977 94.972 20.3294 95.1436 20.1149C95.3152 19.8972 95.4026 19.6431 95.4059 19.3527C95.4026 19.0888 95.3251 18.871 95.1733 18.6994C95.0215 18.5246 94.8087 18.3794 94.5349 18.2639C94.2643 18.1451 93.9475 18.0395 93.5846 17.9472L92.4314 17.6502C91.5967 17.4357 90.9368 17.1107 90.4518 16.6752C89.97 16.2364 89.7292 15.654 89.7292 14.9281C89.7292 14.3309 89.8908 13.808 90.2142 13.3592C90.5408 12.9105 90.9846 12.5624 91.5455 12.315C92.1064 12.0642 92.7416 11.9388 93.451 11.9388C94.1703 11.9388 94.8005 12.0642 95.3416 12.315C95.886 12.5624 96.3133 12.9072 96.6234 13.3493C96.9336 13.7882 97.0936 14.293 97.1035 14.8638H95.3366Z" fill="white"/>
<rect x="0.374573" y="65.2957" width="140.175" height="72.3536" rx="6.96848" fill="#10132E"/>
<path d="M44.6622 106.762V96.6259H51.2546V98.1651H46.4984V100.917H50.9131V102.456H46.4984V105.223H51.2941V106.762H44.6622ZM54.5136 99.1599L56.0479 101.966L57.6069 99.1599H59.5024L57.2109 102.961L59.542 106.762H57.6563L56.0479 104.025L54.4542 106.762H52.5537L54.8699 102.961L52.6131 99.1599H54.5136ZM60.8882 109.613V99.1599H62.6501V100.417H62.754C62.8464 100.232 62.9767 100.036 63.145 99.828C63.3133 99.6168 63.541 99.437 63.828 99.2885C64.1151 99.1368 64.4813 99.0609 64.9267 99.0609C65.514 99.0609 66.0436 99.211 66.5154 99.5113C66.9906 99.8082 67.3667 100.249 67.6438 100.833C67.9243 101.413 68.0645 102.126 68.0645 102.971C68.0645 103.806 67.9276 104.515 67.6537 105.099C67.3799 105.683 67.0071 106.128 66.5352 106.435C66.0634 106.742 65.5289 106.895 64.9317 106.895C64.4962 106.895 64.1349 106.823 63.8478 106.678C63.5608 106.533 63.3298 106.358 63.1549 106.153C62.9833 105.945 62.8497 105.749 62.754 105.564H62.6798V109.613H60.8882ZM62.6451 102.961C62.6451 103.452 62.7144 103.883 62.853 104.253C62.9949 104.622 63.1978 104.911 63.4618 105.119C63.729 105.323 64.0524 105.426 64.4318 105.426C64.8277 105.426 65.1593 105.32 65.4266 105.109C65.6939 104.894 65.8951 104.602 66.0304 104.233C66.169 103.86 66.2383 103.436 66.2383 102.961C66.2383 102.489 66.1706 102.07 66.0354 101.704C65.9001 101.338 65.6988 101.05 65.4316 100.843C65.1643 100.635 64.831 100.531 64.4318 100.531C64.0491 100.531 63.7241 100.631 63.4568 100.833C63.1896 101.034 62.9866 101.316 62.8481 101.679C62.7128 102.042 62.6451 102.469 62.6451 102.961ZM69.5988 106.762V99.1599H71.336V100.427H71.4151C71.5537 99.988 71.7913 99.6498 72.1278 99.4123C72.4677 99.1714 72.8554 99.051 73.2909 99.051C73.3899 99.051 73.5004 99.0559 73.6225 99.0658C73.7479 99.0724 73.8518 99.084 73.9343 99.1005V100.749C73.8584 100.722 73.738 100.699 73.573 100.679C73.4113 100.656 73.2546 100.645 73.1028 100.645C72.7762 100.645 72.4825 100.716 72.2219 100.857C71.9645 100.996 71.7616 101.189 71.6131 101.436C71.4646 101.684 71.3904 101.969 71.3904 102.293V106.762H69.5988ZM78.177 106.91C77.4148 106.91 76.7566 106.752 76.2023 106.435C75.6513 106.115 75.2273 105.663 74.9303 105.079C74.6334 104.492 74.4849 103.801 74.4849 103.005C74.4849 102.223 74.6334 101.537 74.9303 100.947C75.2306 100.353 75.6496 99.8907 76.1874 99.5607C76.7252 99.2275 77.3571 99.0609 78.083 99.0609C78.5515 99.0609 78.9936 99.1368 79.4094 99.2885C79.8284 99.437 80.1979 99.668 80.518 99.9814C80.8413 100.295 81.0954 100.694 81.2802 101.179C81.4649 101.661 81.5573 102.235 81.5573 102.901V103.451H75.3263V102.243H79.8399C79.8366 101.9 79.7624 101.595 79.6172 101.328C79.472 101.057 79.2691 100.844 79.0085 100.689C78.7511 100.534 78.4509 100.457 78.1077 100.457C77.7415 100.457 77.4198 100.546 77.1426 100.724C76.8655 100.899 76.6493 101.13 76.4943 101.417C76.3425 101.7 76.265 102.012 76.2617 102.352V103.406C76.2617 103.848 76.3425 104.228 76.5042 104.545C76.6658 104.858 76.8919 105.099 77.1822 105.267C77.4726 105.432 77.8124 105.515 78.2017 105.515C78.4624 105.515 78.6983 105.478 78.9095 105.406C79.1206 105.33 79.3038 105.219 79.4588 105.074C79.6139 104.929 79.731 104.749 79.8102 104.535L81.4831 104.723C81.3775 105.165 81.1762 105.551 80.8793 105.881C80.5856 106.208 80.2095 106.462 79.7508 106.643C79.2922 106.821 78.7676 106.91 78.177 106.91ZM89.0813 101.169L87.4481 101.347C87.4019 101.182 87.3211 101.027 87.2056 100.882C87.0934 100.737 86.9416 100.62 86.7503 100.531C86.5589 100.442 86.3246 100.397 86.0475 100.397C85.6746 100.397 85.3612 100.478 85.1071 100.64C84.8564 100.801 84.7326 101.011 84.7359 101.268C84.7326 101.489 84.8135 101.669 84.9784 101.808C85.1467 101.946 85.4239 102.06 85.8099 102.149L87.1066 102.426C87.8259 102.581 88.3604 102.827 88.7101 103.164C89.0632 103.5 89.2414 103.941 89.2447 104.485C89.2414 104.964 89.1011 105.386 88.824 105.752C88.5501 106.115 88.169 106.399 87.6807 106.603C87.1924 106.808 86.6315 106.91 85.998 106.91C85.0675 106.91 84.3185 106.716 83.751 106.326C83.1835 105.934 82.8453 105.388 82.7365 104.688L84.4835 104.52C84.5627 104.863 84.731 105.122 84.9883 105.297C85.2457 105.472 85.5806 105.559 85.993 105.559C86.4187 105.559 86.7602 105.472 87.0175 105.297C87.2782 105.122 87.4085 104.906 87.4085 104.649C87.4085 104.431 87.3244 104.251 87.1561 104.109C86.9911 103.967 86.7338 103.858 86.384 103.782L85.0873 103.51C84.3581 103.358 83.8187 103.103 83.4689 102.743C83.1192 102.38 82.946 101.922 82.9493 101.367C82.946 100.899 83.073 100.493 83.3304 100.15C83.591 99.8033 83.9523 99.536 84.4142 99.3479C84.8795 99.1566 85.4156 99.0609 86.0227 99.0609C86.9136 99.0609 87.6147 99.2506 88.1261 99.63C88.6409 100.009 88.9593 100.523 89.0813 101.169ZM96.7303 101.169L95.0971 101.347C95.0509 101.182 94.9701 101.027 94.8546 100.882C94.7424 100.737 94.5906 100.62 94.3993 100.531C94.2079 100.442 93.9736 100.397 93.6965 100.397C93.3236 100.397 93.0102 100.478 92.7561 100.64C92.5054 100.801 92.3816 101.011 92.3849 101.268C92.3816 101.489 92.4625 101.669 92.6274 101.808C92.7957 101.946 93.0729 102.06 93.4589 102.149L94.7556 102.426C95.4749 102.581 96.0094 102.827 96.3591 103.164C96.7122 103.5 96.8904 103.941 96.8937 104.485C96.8904 104.964 96.7501 105.386 96.473 105.752C96.1991 106.115 95.818 106.399 95.3297 106.603C94.8414 106.808 94.2805 106.91 93.647 106.91C92.7165 106.91 91.9675 106.716 91.4 106.326C90.8325 105.934 90.4943 105.388 90.3855 104.688L92.1325 104.52C92.2117 104.863 92.38 105.122 92.6373 105.297C92.8947 105.472 93.2296 105.559 93.642 105.559C94.0677 105.559 94.4092 105.472 94.6665 105.297C94.9272 105.122 95.0575 104.906 95.0575 104.649C95.0575 104.431 94.9734 104.251 94.8051 104.109C94.6401 103.967 94.3828 103.858 94.033 103.782L92.7363 103.51C92.0071 103.358 91.4677 103.103 91.1179 102.743C90.7682 102.38 90.595 101.922 90.5983 101.367C90.595 100.899 90.722 100.493 90.9794 100.15C91.24 99.8033 91.6013 99.536 92.0632 99.3479C92.5285 99.1566 93.0646 99.0609 93.6717 99.0609C94.5626 99.0609 95.2637 99.2506 95.7751 99.63C96.2899 100.009 96.6083 100.523 96.7303 101.169Z" fill="white"/>
<rect x="0.374573" y="149.844" width="140.175" height="72.3536" rx="6.96848" fill="#10132E"/>
<path d="M35.6127 182.713V181.174H43.6997V182.713H40.5669V191.31H38.7456V182.713H35.6127ZM45.422 194.161C45.1779 194.161 44.9519 194.141 44.744 194.102C44.5394 194.065 44.3761 194.022 44.254 193.973L44.6698 192.577C44.9304 192.653 45.163 192.689 45.3676 192.686C45.5722 192.683 45.752 192.618 45.9071 192.493C46.0654 192.371 46.1991 192.166 46.3079 191.879L46.4614 191.469L43.7047 183.708H45.6052L47.3572 189.449H47.4364L49.1933 183.708H51.0988L48.055 192.231C47.9131 192.633 47.7251 192.978 47.4908 193.265C47.2565 193.555 46.9695 193.777 46.6296 193.928C46.2931 194.083 45.8906 194.161 45.422 194.161ZM52.3385 194.161V183.708H54.1005V184.965H54.2044C54.2968 184.781 54.4271 184.584 54.5954 184.376C54.7637 184.165 54.9913 183.985 55.2784 183.837C55.5654 183.685 55.9317 183.609 56.3771 183.609C56.9644 183.609 57.494 183.759 57.9658 184.06C58.4409 184.357 58.8171 184.797 59.0942 185.381C59.3747 185.962 59.5149 186.674 59.5149 187.519C59.5149 188.354 59.378 189.063 59.1041 189.647C58.8303 190.231 58.4574 190.677 57.9856 190.984C57.5138 191.29 56.9793 191.444 56.382 191.444C55.9465 191.444 55.5852 191.371 55.2982 191.226C55.0111 191.081 54.7802 190.906 54.6053 190.701C54.4337 190.494 54.3001 190.297 54.2044 190.112H54.1302V194.161H52.3385ZM54.0955 187.509C54.0955 188.001 54.1648 188.431 54.3034 188.801C54.4453 189.17 54.6482 189.459 54.9121 189.667C55.1794 189.872 55.5027 189.974 55.8822 189.974C56.2781 189.974 56.6097 189.868 56.877 189.657C57.1442 189.443 57.3455 189.151 57.4808 188.781C57.6193 188.408 57.6886 187.984 57.6886 187.509C57.6886 187.037 57.621 186.618 57.4857 186.252C57.3504 185.886 57.1492 185.599 56.8819 185.391C56.6147 185.183 56.2814 185.079 55.8822 185.079C55.4994 185.079 55.1744 185.18 54.9072 185.381C54.6399 185.582 54.437 185.864 54.2984 186.227C54.1632 186.59 54.0955 187.018 54.0955 187.509ZM64.4146 191.459C63.6524 191.459 62.9942 191.3 62.4399 190.984C61.8889 190.663 61.4649 190.211 61.1679 189.627C60.871 189.04 60.7225 188.349 60.7225 187.554C60.7225 186.772 60.871 186.085 61.1679 185.495C61.4682 184.901 61.8872 184.439 62.425 184.109C62.9628 183.776 63.5947 183.609 64.3206 183.609C64.7891 183.609 65.2312 183.685 65.647 183.837C66.066 183.985 66.4355 184.216 66.7556 184.53C67.0789 184.843 67.333 185.242 67.5178 185.727C67.7025 186.209 67.7949 186.783 67.7949 187.45V187.999H61.5639V186.792H66.0775C66.0742 186.448 66 186.143 65.8548 185.876C65.7097 185.605 65.5067 185.393 65.2461 185.238C64.9887 185.082 64.6885 185.005 64.3453 185.005C63.9791 185.005 63.6574 185.094 63.3802 185.272C63.1031 185.447 62.887 185.678 62.7319 185.965C62.5801 186.249 62.5026 186.561 62.4993 186.9V187.955C62.4993 188.397 62.5801 188.776 62.7418 189.093C62.9035 189.406 63.1295 189.647 63.4198 189.816C63.7102 189.98 64.05 190.063 64.4394 190.063C64.7 190.063 64.9359 190.027 65.1471 189.954C65.3583 189.878 65.5414 189.768 65.6965 189.623C65.8515 189.477 65.9687 189.298 66.0478 189.083L67.7207 189.271C67.6151 189.713 67.4138 190.099 67.1169 190.429C66.8232 190.756 66.4471 191.01 65.9885 191.191C65.5298 191.37 65.0052 191.459 64.4146 191.459ZM75.3189 185.718L73.6857 185.896C73.6395 185.731 73.5587 185.576 73.4432 185.431C73.331 185.285 73.1792 185.168 72.9879 185.079C72.7965 184.99 72.5622 184.946 72.2851 184.946C71.9122 184.946 71.5988 185.026 71.3447 185.188C71.094 185.35 70.9702 185.559 70.9735 185.817C70.9702 186.038 71.0511 186.217 71.2161 186.356C71.3843 186.495 71.6615 186.608 72.0475 186.698L73.3442 186.975C74.0635 187.13 74.598 187.376 74.9478 187.712C75.3008 188.049 75.479 188.489 75.4823 189.034C75.479 189.512 75.3387 189.934 75.0616 190.301C74.7877 190.663 74.4066 190.947 73.9183 191.152C73.43 191.356 72.8691 191.459 72.2356 191.459C71.3051 191.459 70.5562 191.264 69.9887 190.875C69.4211 190.482 69.0829 189.936 68.9741 189.236L70.7211 189.068C70.8003 189.411 70.9686 189.67 71.226 189.845C71.4833 190.02 71.8182 190.108 72.2306 190.108C72.6563 190.108 72.9978 190.02 73.2551 189.845C73.5158 189.67 73.6461 189.454 73.6461 189.197C73.6461 188.979 73.562 188.799 73.3937 188.657C73.2287 188.516 72.9714 188.407 72.6216 188.331L71.3249 188.059C70.5958 187.907 70.0563 187.651 69.7065 187.291C69.3568 186.928 69.1836 186.47 69.1869 185.916C69.1836 185.447 69.3106 185.041 69.568 184.698C69.8286 184.352 70.1899 184.084 70.6518 183.896C71.1171 183.705 71.6532 183.609 72.2603 183.609C73.1512 183.609 73.8523 183.799 74.3638 184.178C74.8785 184.558 75.1969 185.071 75.3189 185.718ZM80.2756 191.459C79.5167 191.459 78.8651 191.292 78.3206 190.959C77.7795 190.626 77.3621 190.165 77.0685 189.578C76.7781 188.987 76.633 188.308 76.633 187.539C76.633 186.767 76.7814 186.085 77.0784 185.495C77.3753 184.901 77.7944 184.439 78.3355 184.109C78.8799 183.776 79.5233 183.609 80.2657 183.609C80.8827 183.609 81.4287 183.723 81.9039 183.951C82.3823 184.175 82.7634 184.493 83.0471 184.906C83.3309 185.315 83.4926 185.793 83.5322 186.341H81.8197C81.7504 185.975 81.5855 185.67 81.3248 185.426C81.0675 185.178 80.7227 185.054 80.2904 185.054C79.9242 185.054 79.6025 185.153 79.3253 185.351C79.0482 185.546 78.8321 185.826 78.677 186.193C78.5252 186.559 78.4493 186.998 78.4493 187.509C78.4493 188.027 78.5252 188.473 78.677 188.845C78.8288 189.215 79.0416 189.5 79.3154 189.702C79.5926 189.9 79.9176 189.999 80.2904 189.999C80.5544 189.999 80.7903 189.949 80.9982 189.85C81.2093 189.748 81.3859 189.601 81.5277 189.41C81.6696 189.218 81.7669 188.986 81.8197 188.712H83.5322C83.4893 189.25 83.3309 189.726 83.057 190.142C82.7832 190.555 82.4103 190.878 81.9385 191.112C81.4667 191.343 80.9124 191.459 80.2756 191.459ZM85.0033 191.31V183.708H86.7405V184.975H86.8197C86.9582 184.536 87.1958 184.198 87.5324 183.961C87.8722 183.72 88.2599 183.599 88.6954 183.599C88.7944 183.599 88.9049 183.604 89.027 183.614C89.1524 183.621 89.2563 183.632 89.3388 183.649V185.297C89.2629 185.27 89.1425 185.247 88.9775 185.228C88.8158 185.205 88.6591 185.193 88.5073 185.193C88.1807 185.193 87.887 185.264 87.6264 185.406C87.369 185.544 87.1661 185.737 87.0176 185.985C86.8692 186.232 86.7949 186.518 86.7949 186.841V191.31H85.0033ZM90.5291 191.31V183.708H92.3207V191.31H90.5291ZM91.4299 182.629C91.1461 182.629 90.9019 182.535 90.6974 182.347C90.4928 182.156 90.3905 181.926 90.3905 181.659C90.3905 181.389 90.4928 181.159 90.6974 180.971C90.9019 180.78 91.1461 180.684 91.4299 180.684C91.7169 180.684 91.9611 180.78 92.1623 180.971C92.3669 181.159 92.4692 181.389 92.4692 181.659C92.4692 181.926 92.3669 182.156 92.1623 182.347C91.9611 182.535 91.7169 182.629 91.4299 182.629ZM94.1631 194.161V183.708H95.925V184.965H96.0289C96.1213 184.781 96.2516 184.584 96.4199 184.376C96.5882 184.165 96.8158 183.985 97.1029 183.837C97.3899 183.685 97.7562 183.609 98.2016 183.609C98.7889 183.609 99.3185 183.759 99.7903 184.06C100.265 184.357 100.642 184.797 100.919 185.381C101.199 185.962 101.339 186.674 101.339 187.519C101.339 188.354 101.202 189.063 100.929 189.647C100.655 190.231 100.282 190.677 99.8101 190.984C99.3383 191.29 98.8038 191.444 98.2066 191.444C97.771 191.444 97.4097 191.371 97.1227 191.226C96.8356 191.081 96.6047 190.906 96.4298 190.701C96.2582 190.494 96.1246 190.297 96.0289 190.112H95.9547V194.161H94.1631ZM95.92 187.509C95.92 188.001 95.9893 188.431 96.1279 188.801C96.2698 189.17 96.4727 189.459 96.7366 189.667C97.0039 189.872 97.3272 189.974 97.7067 189.974C98.1026 189.974 98.4342 189.868 98.7015 189.657C98.9687 189.443 99.17 189.151 99.3053 188.781C99.4439 188.408 99.5131 187.984 99.5131 187.509C99.5131 187.037 99.4455 186.618 99.3102 186.252C99.1749 185.886 98.9737 185.599 98.7064 185.391C98.4392 185.183 98.1059 185.079 97.7067 185.079C97.3239 185.079 96.9989 185.18 96.7317 185.381C96.4644 185.582 96.2615 185.864 96.1229 186.227C95.9877 186.59 95.92 187.018 95.92 187.509ZM106.67 183.708V185.094H102.3V183.708H106.67ZM103.378 181.887H105.17V189.024C105.17 189.265 105.206 189.449 105.279 189.578C105.355 189.703 105.454 189.789 105.576 189.835C105.698 189.882 105.833 189.905 105.982 189.905C106.094 189.905 106.196 189.896 106.289 189.88C106.384 189.863 106.457 189.849 106.506 189.835L106.808 191.236C106.713 191.269 106.576 191.305 106.397 191.345C106.223 191.384 106.008 191.408 105.754 191.414C105.305 191.427 104.901 191.36 104.542 191.211C104.182 191.059 103.896 190.825 103.685 190.508C103.477 190.192 103.375 189.796 103.378 189.321V181.887Z" fill="white"/>
<rect x="0.374573" y="234.392" width="140.175" height="72.3536" rx="6.96848" fill="#10132E"/>
</g>
<g clip-path="url(#clip1_3_4041)">
<rect x="150.197" y="-55.2566" width="140.175" height="72.3536" rx="6.96848" fill="#10132E"/>
<rect x="150.197" y="29.2919" width="140.175" height="72.3536" rx="6.96848" fill="#10132E"/>
<path d="M202.123 60.6221V70.7581H200.49L195.714 63.8539H195.629V70.7581H193.793V60.6221H195.436L200.207 67.5312H200.297V60.6221H202.123ZM207.36 70.9065C206.618 70.9065 205.975 70.7432 205.43 70.4166C204.886 70.0899 204.463 69.6329 204.163 69.0456C203.866 68.4583 203.718 67.772 203.718 66.9868C203.718 66.2015 203.866 65.5135 204.163 64.9229C204.463 64.3323 204.886 63.8737 205.43 63.5471C205.975 63.2204 206.618 63.0571 207.36 63.0571C208.103 63.0571 208.746 63.2204 209.291 63.5471C209.835 63.8737 210.256 64.3323 210.553 64.9229C210.853 65.5135 211.003 66.2015 211.003 66.9868C211.003 67.772 210.853 68.4583 210.553 69.0456C210.256 69.6329 209.835 70.0899 209.291 70.4166C208.746 70.7432 208.103 70.9065 207.36 70.9065ZM207.37 69.4713C207.773 69.4713 208.109 69.3607 208.38 69.1397C208.65 68.9153 208.852 68.6151 208.984 68.2389C209.119 67.8628 209.187 67.4437 209.187 66.9818C209.187 66.5166 209.119 66.0959 208.984 65.7198C208.852 65.3403 208.65 65.0384 208.38 64.8141C208.109 64.5897 207.773 64.4775 207.37 64.4775C206.958 64.4775 206.615 64.5897 206.341 64.8141C206.07 65.0384 205.867 65.3403 205.732 65.7198C205.6 66.0959 205.534 66.5166 205.534 66.9818C205.534 67.4437 205.6 67.8628 205.732 68.2389C205.867 68.6151 206.07 68.9153 206.341 69.1397C206.615 69.3607 206.958 69.4713 207.37 69.4713ZM215.345 70.8917C214.747 70.8917 214.213 70.7383 213.741 70.4314C213.269 70.1246 212.896 69.6791 212.623 69.0951C212.349 68.5111 212.212 67.8017 212.212 66.967C212.212 66.1223 212.35 65.4096 212.628 64.8289C212.908 64.2449 213.286 63.8044 213.761 63.5075C214.236 63.2072 214.766 63.0571 215.35 63.0571C215.795 63.0571 216.161 63.133 216.448 63.2848C216.735 63.4332 216.963 63.6131 217.131 63.8242C217.3 64.0321 217.43 64.2284 217.522 64.4132H217.597V60.6221H219.393V70.7581H217.631V69.5603H217.522C217.43 69.7451 217.296 69.9414 217.121 70.1493C216.947 70.3539 216.716 70.5287 216.429 70.6739C216.141 70.8191 215.78 70.8917 215.345 70.8917ZM215.845 69.4218C216.224 69.4218 216.547 69.3195 216.815 69.1149C217.082 68.9071 217.285 68.6183 217.423 68.2488C217.562 67.8793 217.631 67.4487 217.631 66.9571C217.631 66.4654 217.562 66.0382 217.423 65.6752C217.288 65.3123 217.087 65.0302 216.82 64.8289C216.556 64.6276 216.231 64.527 215.845 64.527C215.445 64.527 215.112 64.6309 214.845 64.8388C214.578 65.0467 214.376 65.3337 214.241 65.7C214.106 66.0662 214.038 66.4852 214.038 66.9571C214.038 67.4322 214.106 67.8562 214.241 68.229C214.38 68.5986 214.582 68.8906 214.85 69.105C215.12 69.3162 215.452 69.4218 215.845 69.4218ZM224.668 70.9065C223.906 70.9065 223.247 70.7482 222.693 70.4314C222.142 70.1114 221.718 69.6593 221.421 69.0753C221.124 68.488 220.976 67.7968 220.976 67.0016C220.976 66.2196 221.124 65.5333 221.421 64.9427C221.721 64.3488 222.14 63.8869 222.678 63.557C223.216 63.2237 223.848 63.0571 224.574 63.0571C225.042 63.0571 225.484 63.133 225.9 63.2848C226.319 63.4332 226.689 63.6642 227.009 63.9776C227.332 64.2911 227.586 64.6903 227.771 65.1754C227.956 65.6571 228.048 66.2312 228.048 66.8977V67.447H221.817V66.2394H226.331C226.327 65.8963 226.253 65.5911 226.108 65.3238C225.963 65.0533 225.76 64.8405 225.499 64.6854C225.242 64.5303 224.942 64.4528 224.598 64.4528C224.232 64.4528 223.91 64.5419 223.633 64.72C223.356 64.8949 223.14 65.1259 222.985 65.4129C222.833 65.6967 222.756 66.0085 222.752 66.3483V67.4025C222.752 67.8446 222.833 68.2241 222.995 68.5408C223.157 68.8543 223.383 69.0951 223.673 69.2634C223.963 69.4284 224.303 69.5109 224.692 69.5109C224.953 69.5109 225.189 69.4746 225.4 69.402C225.611 69.3261 225.794 69.2156 225.95 69.0704C226.105 68.9252 226.222 68.7454 226.301 68.5309L227.974 68.719C227.868 69.1611 227.667 69.5472 227.37 69.8771C227.076 70.2037 226.7 70.4578 226.242 70.6393C225.783 70.8174 225.258 70.9065 224.668 70.9065ZM237.099 60.6221H238.92V67.7489C238.917 68.4022 238.778 68.9648 238.504 69.4366C238.231 69.9051 237.848 70.2664 237.356 70.5205C236.868 70.7713 236.299 70.8966 235.649 70.8966C235.055 70.8966 234.52 70.7911 234.045 70.5799C233.573 70.3654 233.199 70.0487 232.922 69.6296C232.645 69.2106 232.506 68.6893 232.506 68.0657H234.332C234.336 68.3395 234.395 68.5755 234.51 68.7734C234.629 68.9714 234.793 69.1232 235 69.2288C235.208 69.3343 235.447 69.3871 235.718 69.3871C236.012 69.3871 236.261 69.3261 236.465 69.204C236.67 69.0786 236.825 68.8939 236.931 68.6497C237.039 68.4055 237.096 68.1053 237.099 67.7489V60.6221ZM246.421 63.4085C246.375 62.9763 246.18 62.6397 245.837 62.3988C245.497 62.158 245.055 62.0376 244.51 62.0376C244.128 62.0376 243.799 62.0953 243.525 62.2108C243.252 62.3263 243.042 62.483 242.897 62.681C242.752 62.8789 242.677 63.1049 242.674 63.359C242.674 63.5702 242.722 63.7533 242.818 63.9084C242.917 64.0634 243.05 64.1954 243.219 64.3043C243.387 64.4099 243.573 64.499 243.778 64.5715C243.982 64.6441 244.189 64.7052 244.396 64.7547L245.347 64.9922C245.729 65.0813 246.097 65.2017 246.45 65.3535C246.807 65.5053 247.125 65.6967 247.406 65.9276C247.689 66.1586 247.914 66.4374 248.079 66.764C248.244 67.0907 248.326 67.4734 248.326 67.9123C248.326 68.5062 248.174 69.0291 247.871 69.4812C247.567 69.9299 247.128 70.2813 246.554 70.5353C245.984 70.7861 245.292 70.9115 244.481 70.9115C243.692 70.9115 243.007 70.7894 242.427 70.5452C241.849 70.3011 241.397 69.9447 241.071 69.4762C240.747 69.0077 240.572 68.4369 240.546 67.7638H242.352C242.379 68.1168 242.488 68.4105 242.679 68.6447C242.87 68.879 243.12 69.0539 243.426 69.1694C243.737 69.2848 244.083 69.3426 244.466 69.3426C244.865 69.3426 245.215 69.2832 245.515 69.1644C245.819 69.0423 246.056 68.8741 246.228 68.6596C246.399 68.4418 246.487 68.1878 246.49 67.8974C246.487 67.6335 246.409 67.4157 246.257 67.2441C246.106 67.0692 245.893 66.9241 245.619 66.8086C245.348 66.6898 245.032 66.5842 244.669 66.4918L243.516 66.1949C242.681 65.9804 242.021 65.6554 241.536 65.2199C241.054 64.7811 240.813 64.1987 240.813 63.4728C240.813 62.8756 240.975 62.3527 241.298 61.9039C241.625 61.4552 242.069 61.1071 242.63 60.8596C243.191 60.6089 243.826 60.4835 244.535 60.4835C245.254 60.4835 245.885 60.6089 246.426 60.8596C246.97 61.1071 247.397 61.4519 247.708 61.894C248.018 62.3329 248.178 62.8377 248.188 63.4085H246.421Z" fill="white"/>
<rect x="150.197" y="113.84" width="140.175" height="72.3536" rx="6.96848" fill="#10132E"/>
<path d="M190.866 145.171H192.687V152.297C192.684 152.951 192.545 153.513 192.271 153.985C191.998 154.454 191.615 154.815 191.123 155.069C190.635 155.32 190.066 155.445 189.416 155.445C188.822 155.445 188.287 155.34 187.812 155.128C187.34 154.914 186.966 154.597 186.689 154.178C186.412 153.759 186.273 153.238 186.273 152.614H188.099C188.103 152.888 188.162 153.124 188.277 153.322C188.396 153.52 188.559 153.672 188.767 153.777C188.975 153.883 189.214 153.936 189.485 153.936C189.779 153.936 190.028 153.875 190.232 153.752C190.437 153.627 190.592 153.442 190.698 153.198C190.806 152.954 190.863 152.654 190.866 152.297V145.171ZM196.788 155.46C196.306 155.46 195.872 155.374 195.486 155.203C195.103 155.028 194.8 154.77 194.575 154.431C194.354 154.091 194.244 153.672 194.244 153.173C194.244 152.744 194.323 152.39 194.481 152.109C194.64 151.829 194.856 151.605 195.13 151.436C195.403 151.268 195.712 151.141 196.055 151.055C196.402 150.966 196.76 150.902 197.129 150.862C197.574 150.816 197.936 150.775 198.213 150.738C198.49 150.699 198.691 150.639 198.817 150.56C198.945 150.478 199.01 150.351 199.01 150.179V150.149C199.01 149.777 198.899 149.488 198.678 149.283C198.457 149.079 198.139 148.976 197.723 148.976C197.284 148.976 196.936 149.072 196.679 149.264C196.425 149.455 196.253 149.681 196.164 149.942L194.491 149.704C194.623 149.242 194.841 148.856 195.144 148.546C195.448 148.232 195.819 147.998 196.258 147.843C196.697 147.685 197.182 147.606 197.713 147.606C198.079 147.606 198.444 147.648 198.807 147.734C199.17 147.82 199.501 147.962 199.802 148.16C200.102 148.355 200.343 148.62 200.524 148.957C200.709 149.293 200.801 149.714 200.801 150.219V155.307H199.079V154.262H199.02C198.911 154.473 198.757 154.671 198.559 154.856C198.365 155.038 198.119 155.184 197.822 155.297C197.528 155.406 197.183 155.46 196.788 155.46ZM197.253 154.143C197.612 154.143 197.924 154.073 198.188 153.931C198.452 153.785 198.655 153.594 198.797 153.357C198.942 153.119 199.015 152.86 199.015 152.58V151.684C198.959 151.73 198.863 151.773 198.728 151.812C198.596 151.852 198.447 151.887 198.282 151.916C198.117 151.946 197.954 151.972 197.792 151.995C197.631 152.019 197.49 152.038 197.372 152.055C197.104 152.091 196.865 152.151 196.654 152.233C196.443 152.316 196.276 152.431 196.154 152.58C196.032 152.725 195.971 152.913 195.971 153.144C195.971 153.474 196.091 153.723 196.332 153.891C196.573 154.059 196.88 154.143 197.253 154.143ZM209.121 147.705L206.414 155.307H204.434L201.727 147.705H203.637L205.384 153.352H205.464L207.216 147.705H209.121ZM212.331 155.46C211.849 155.46 211.415 155.374 211.029 155.203C210.646 155.028 210.343 154.77 210.118 154.431C209.897 154.091 209.787 153.672 209.787 153.173C209.787 152.744 209.866 152.39 210.024 152.109C210.183 151.829 210.399 151.605 210.673 151.436C210.946 151.268 211.255 151.141 211.598 151.055C211.945 150.966 212.302 150.902 212.672 150.862C213.117 150.816 213.479 150.775 213.756 150.738C214.033 150.699 214.234 150.639 214.36 150.56C214.488 150.478 214.553 150.351 214.553 150.179V150.149C214.553 149.777 214.442 149.488 214.221 149.283C214 149.079 213.682 148.976 213.266 148.976C212.827 148.976 212.479 149.072 212.222 149.264C211.968 149.455 211.796 149.681 211.707 149.942L210.034 149.704C210.166 149.242 210.384 148.856 210.687 148.546C210.991 148.232 211.362 147.998 211.801 147.843C212.24 147.685 212.725 147.606 213.256 147.606C213.622 147.606 213.987 147.648 214.35 147.734C214.713 147.82 215.044 147.962 215.345 148.16C215.645 148.355 215.886 148.62 216.067 148.957C216.252 149.293 216.344 149.714 216.344 150.219V155.307H214.622V154.262H214.563C214.454 154.473 214.3 154.671 214.102 154.856C213.908 155.038 213.662 155.184 213.365 155.297C213.071 155.406 212.726 155.46 212.331 155.46ZM212.796 154.143C213.155 154.143 213.467 154.073 213.731 153.931C213.995 153.785 214.198 153.594 214.34 153.357C214.485 153.119 214.558 152.86 214.558 152.58V151.684C214.502 151.73 214.406 151.773 214.271 151.812C214.139 151.852 213.99 151.887 213.825 151.916C213.66 151.946 213.497 151.972 213.335 151.995C213.174 152.019 213.033 152.038 212.915 152.055C212.647 152.091 212.408 152.151 212.197 152.233C211.986 152.316 211.819 152.431 211.697 152.58C211.575 152.725 211.514 152.913 211.514 153.144C211.514 153.474 211.634 153.723 211.875 153.891C212.116 154.059 212.423 154.143 212.796 154.143ZM224.154 149.714L222.521 149.892C222.475 149.727 222.394 149.572 222.278 149.427C222.166 149.282 222.014 149.165 221.823 149.075C221.632 148.986 221.397 148.942 221.12 148.942C220.747 148.942 220.434 149.023 220.18 149.184C219.929 149.346 219.805 149.556 219.809 149.813C219.805 150.034 219.886 150.214 220.051 150.352C220.22 150.491 220.497 150.605 220.883 150.694L222.179 150.971C222.899 151.126 223.433 151.372 223.783 151.708C224.136 152.045 224.314 152.485 224.318 153.03C224.314 153.508 224.174 153.931 223.897 154.297C223.623 154.66 223.242 154.944 222.754 155.148C222.265 155.353 221.704 155.455 221.071 155.455C220.14 155.455 219.391 155.26 218.824 154.871C218.256 154.478 217.918 153.932 217.809 153.233L219.556 153.065C219.636 153.408 219.804 153.667 220.061 153.842C220.319 154.016 220.653 154.104 221.066 154.104C221.492 154.104 221.833 154.016 222.09 153.842C222.351 153.667 222.481 153.451 222.481 153.193C222.481 152.975 222.397 152.796 222.229 152.654C222.064 152.512 221.807 152.403 221.457 152.327L220.16 152.055C219.431 151.903 218.892 151.647 218.542 151.288C218.192 150.925 218.019 150.466 218.022 149.912C218.019 149.443 218.146 149.038 218.403 148.694C218.664 148.348 219.025 148.081 219.487 147.893C219.952 147.701 220.488 147.606 221.096 147.606C221.986 147.606 222.688 147.795 223.199 148.175C223.714 148.554 224.032 149.067 224.154 149.714ZM229.111 155.455C228.352 155.455 227.7 155.288 227.156 154.955C226.615 154.622 226.197 154.162 225.904 153.574C225.613 152.984 225.468 152.304 225.468 151.535C225.468 150.763 225.617 150.082 225.914 149.491C226.211 148.897 226.63 148.435 227.171 148.105C227.715 147.772 228.359 147.606 229.101 147.606C229.718 147.606 230.264 147.719 230.739 147.947C231.218 148.171 231.599 148.49 231.882 148.902C232.166 149.311 232.328 149.79 232.367 150.338H230.655C230.586 149.971 230.421 149.666 230.16 149.422C229.903 149.174 229.558 149.051 229.126 149.051C228.759 149.051 228.438 149.15 228.161 149.348C227.883 149.542 227.667 149.823 227.512 150.189C227.36 150.555 227.285 150.994 227.285 151.506C227.285 152.024 227.36 152.469 227.512 152.842C227.664 153.211 227.877 153.497 228.151 153.698C228.428 153.896 228.753 153.995 229.126 153.995C229.39 153.995 229.626 153.945 229.833 153.847C230.045 153.744 230.221 153.597 230.363 153.406C230.505 153.215 230.602 152.982 230.655 152.708H232.367C232.325 153.246 232.166 153.723 231.892 154.139C231.618 154.551 231.246 154.874 230.774 155.109C230.302 155.34 229.748 155.455 229.111 155.455ZM233.839 155.307V147.705H235.576V148.972H235.655C235.793 148.533 236.031 148.195 236.368 147.957C236.707 147.716 237.095 147.596 237.531 147.596C237.63 147.596 237.74 147.601 237.862 147.611C237.988 147.617 238.092 147.629 238.174 147.645V149.293C238.098 149.267 237.978 149.244 237.813 149.224C237.651 149.201 237.494 149.189 237.343 149.189C237.016 149.189 236.722 149.26 236.462 149.402C236.204 149.541 236.001 149.734 235.853 149.981C235.704 150.229 235.63 150.514 235.63 150.837V155.307H233.839ZM239.364 155.307V147.705H241.156V155.307H239.364ZM240.265 146.626C239.981 146.626 239.737 146.532 239.533 146.344C239.328 146.152 239.226 145.923 239.226 145.656C239.226 145.385 239.328 145.156 239.533 144.968C239.737 144.776 239.981 144.681 240.265 144.681C240.552 144.681 240.796 144.776 240.998 144.968C241.202 145.156 241.304 145.385 241.304 145.656C241.304 145.923 241.202 146.152 240.998 146.344C240.796 146.532 240.552 146.626 240.265 146.626ZM242.998 158.157V147.705H244.76V148.962H244.864C244.957 148.777 245.087 148.581 245.255 148.373C245.423 148.162 245.651 147.982 245.938 147.833C246.225 147.681 246.591 147.606 247.037 147.606C247.624 147.606 248.154 147.756 248.626 148.056C249.101 148.353 249.477 148.793 249.754 149.377C250.034 149.958 250.175 150.671 250.175 151.515C250.175 152.35 250.038 153.06 249.764 153.644C249.49 154.228 249.117 154.673 248.645 154.98C248.174 155.287 247.639 155.44 247.042 155.44C246.606 155.44 246.245 155.368 245.958 155.222C245.671 155.077 245.44 154.902 245.265 154.698C245.093 154.49 244.96 154.294 244.864 154.109H244.79V158.157H242.998ZM244.755 151.506C244.755 151.997 244.825 152.428 244.963 152.797C245.105 153.167 245.308 153.456 245.572 153.663C245.839 153.868 246.162 153.97 246.542 153.97C246.938 153.97 247.269 153.865 247.537 153.653C247.804 153.439 248.005 153.147 248.141 152.777C248.279 152.405 248.348 151.981 248.348 151.506C248.348 151.034 248.281 150.615 248.145 150.248C248.01 149.882 247.809 149.595 247.542 149.387C247.274 149.179 246.941 149.075 246.542 149.075C246.159 149.075 245.834 149.176 245.567 149.377C245.3 149.579 245.097 149.861 244.958 150.224C244.823 150.587 244.755 151.014 244.755 151.506ZM255.505 147.705V149.09H251.135V147.705H255.505ZM252.214 145.883H254.005V153.02C254.005 153.261 254.042 153.446 254.114 153.574C254.19 153.7 254.289 153.785 254.411 153.832C254.533 153.878 254.669 153.901 254.817 153.901C254.929 153.901 255.031 153.893 255.124 153.876C255.22 153.86 255.292 153.845 255.342 153.832L255.644 155.232C255.548 155.265 255.411 155.302 255.233 155.341C255.058 155.381 254.843 155.404 254.589 155.41C254.141 155.424 253.736 155.356 253.377 155.208C253.017 155.056 252.732 154.821 252.521 154.505C252.313 154.188 252.21 153.792 252.214 153.317V145.883Z" fill="white"/>
<rect x="150.197" y="198.389" width="140.175" height="72.3536" rx="6.96848" fill="#10132E"/>
<path d="M188.949 229.719H191.196L194.205 237.064H194.324L197.333 229.719H199.58V239.855H197.818V232.891H197.724L194.923 239.825H193.606L190.805 232.876H190.711V239.855H188.949V229.719ZM204.816 240.003C204.074 240.003 203.431 239.84 202.886 239.513C202.342 239.187 201.919 238.73 201.619 238.142C201.322 237.555 201.174 236.869 201.174 236.084C201.174 235.298 201.322 234.61 201.619 234.02C201.919 233.429 202.342 232.971 202.886 232.644C203.431 232.317 204.074 232.154 204.816 232.154C205.559 232.154 206.202 232.317 206.747 232.644C207.291 232.971 207.712 233.429 208.009 234.02C208.309 234.61 208.459 235.298 208.459 236.084C208.459 236.869 208.309 237.555 208.009 238.142C207.712 238.73 207.291 239.187 206.747 239.513C206.202 239.84 205.559 240.003 204.816 240.003ZM204.826 238.568C205.229 238.568 205.565 238.458 205.836 238.236C206.106 238.012 206.308 237.712 206.44 237.336C206.575 236.96 206.643 236.541 206.643 236.079C206.643 235.613 206.575 235.193 206.44 234.817C206.308 234.437 206.106 234.135 205.836 233.911C205.565 233.686 205.229 233.574 204.826 233.574C204.414 233.574 204.071 233.686 203.797 233.911C203.526 234.135 203.323 234.437 203.188 234.817C203.056 235.193 202.99 235.613 202.99 236.079C202.99 236.541 203.056 236.96 203.188 237.336C203.323 237.712 203.526 238.012 203.797 238.236C204.071 238.458 204.414 238.568 204.826 238.568ZM211.771 235.401V239.855H209.98V232.253H211.692V233.545H211.781C211.956 233.119 212.235 232.781 212.618 232.53C213.004 232.279 213.48 232.154 214.048 232.154C214.573 232.154 215.03 232.266 215.419 232.49C215.811 232.715 216.115 233.04 216.329 233.465C216.547 233.891 216.654 234.407 216.651 235.015V239.855H214.86V235.292C214.86 234.784 214.728 234.386 214.464 234.099C214.203 233.812 213.842 233.668 213.38 233.668C213.066 233.668 212.788 233.738 212.543 233.876C212.302 234.011 212.113 234.208 211.974 234.465C211.839 234.723 211.771 235.034 211.771 235.401ZM221.779 242.864C221.135 242.864 220.583 242.777 220.121 242.602C219.659 242.43 219.287 242.199 219.007 241.909C218.727 241.618 218.532 241.297 218.423 240.944L220.036 240.553C220.109 240.701 220.215 240.848 220.353 240.993C220.492 241.142 220.678 241.264 220.912 241.359C221.15 241.458 221.449 241.508 221.808 241.508C222.316 241.508 222.737 241.384 223.07 241.137C223.404 240.893 223.57 240.49 223.57 239.929V238.489H223.481C223.389 238.674 223.253 238.863 223.075 239.058C222.9 239.253 222.668 239.416 222.377 239.548C222.09 239.68 221.729 239.746 221.294 239.746C220.71 239.746 220.18 239.609 219.705 239.335C219.233 239.058 218.857 238.646 218.576 238.098C218.299 237.547 218.161 236.857 218.161 236.029C218.161 235.194 218.299 234.49 218.576 233.916C218.857 233.338 219.235 232.901 219.71 232.604C220.185 232.304 220.714 232.154 221.299 232.154C221.744 232.154 222.11 232.23 222.397 232.382C222.688 232.53 222.919 232.71 223.09 232.921C223.262 233.129 223.392 233.325 223.481 233.51H223.58V232.253H225.347V239.979C225.347 240.629 225.192 241.166 224.882 241.592C224.572 242.018 224.148 242.336 223.61 242.547C223.072 242.758 222.462 242.864 221.779 242.864ZM221.793 238.34C222.173 238.34 222.496 238.248 222.763 238.063C223.031 237.878 223.234 237.613 223.372 237.266C223.511 236.92 223.58 236.504 223.58 236.019C223.58 235.541 223.511 235.122 223.372 234.762C223.237 234.402 223.036 234.124 222.768 233.926C222.504 233.724 222.179 233.624 221.793 233.624C221.394 233.624 221.061 233.728 220.794 233.936C220.526 234.143 220.325 234.429 220.19 234.792C220.055 235.151 219.987 235.561 219.987 236.019C219.987 236.484 220.055 236.892 220.19 237.242C220.328 237.588 220.531 237.859 220.799 238.053C221.069 238.245 221.401 238.34 221.793 238.34ZM230.499 240.003C229.757 240.003 229.113 239.84 228.569 239.513C228.024 239.187 227.602 238.73 227.302 238.142C227.005 237.555 226.856 236.869 226.856 236.084C226.856 235.298 227.005 234.61 227.302 234.02C227.602 233.429 228.024 232.971 228.569 232.644C229.113 232.317 229.757 232.154 230.499 232.154C231.241 232.154 231.885 232.317 232.429 232.644C232.974 232.971 233.394 233.429 233.691 234.02C233.992 234.61 234.142 235.298 234.142 236.084C234.142 236.869 233.992 237.555 233.691 238.142C233.394 238.73 232.974 239.187 232.429 239.513C231.885 239.84 231.241 240.003 230.499 240.003ZM230.509 238.568C230.912 238.568 231.248 238.458 231.519 238.236C231.789 238.012 231.99 237.712 232.122 237.336C232.258 236.96 232.325 236.541 232.325 236.079C232.325 235.613 232.258 235.193 232.122 234.817C231.99 234.437 231.789 234.135 231.519 233.911C231.248 233.686 230.912 233.574 230.509 233.574C230.097 233.574 229.753 233.686 229.48 233.911C229.209 234.135 229.006 234.437 228.871 234.817C228.739 235.193 228.673 235.613 228.673 236.079C228.673 236.541 228.739 236.96 228.871 237.336C229.006 237.712 229.209 238.012 229.48 238.236C229.753 238.458 230.097 238.568 230.509 238.568ZM239.176 239.855H235.742V229.719H239.246C240.252 229.719 241.116 229.922 241.839 230.328C242.565 230.73 243.122 231.309 243.512 232.065C243.901 232.82 244.096 233.724 244.096 234.777C244.096 235.833 243.899 236.74 243.507 237.499C243.117 238.258 242.555 238.84 241.819 239.246C241.087 239.652 240.206 239.855 239.176 239.855ZM237.578 238.266H239.087C239.793 238.266 240.382 238.137 240.854 237.88C241.326 237.619 241.681 237.232 241.918 236.717C242.156 236.199 242.274 235.552 242.274 234.777C242.274 234.002 242.156 233.358 241.918 232.847C241.681 232.332 241.329 231.948 240.864 231.694C240.402 231.436 239.828 231.308 239.142 231.308H237.578V238.266ZM245.84 239.855V229.719H249.721C250.453 229.719 251.062 229.834 251.547 230.065C252.035 230.293 252.4 230.605 252.641 231.001C252.885 231.397 253.007 231.845 253.007 232.347C253.007 232.759 252.928 233.112 252.769 233.406C252.611 233.696 252.398 233.932 252.131 234.114C251.864 234.295 251.565 234.426 251.235 234.505V234.604C251.595 234.624 251.939 234.734 252.269 234.935C252.603 235.133 252.875 235.414 253.086 235.777C253.297 236.14 253.403 236.578 253.403 237.093C253.403 237.618 253.276 238.09 253.022 238.509C252.768 238.924 252.385 239.253 251.873 239.494C251.362 239.734 250.719 239.855 249.943 239.855H245.84ZM247.677 238.321H249.651C250.318 238.321 250.798 238.194 251.091 237.94C251.388 237.682 251.537 237.352 251.537 236.95C251.537 236.649 251.463 236.379 251.314 236.138C251.166 235.894 250.955 235.702 250.681 235.564C250.407 235.422 250.08 235.351 249.701 235.351H247.677V238.321ZM247.677 234.03H249.493C249.81 234.03 250.095 233.972 250.349 233.856C250.603 233.738 250.803 233.571 250.948 233.357C251.096 233.139 251.171 232.881 251.171 232.584C251.171 232.192 251.032 231.868 250.755 231.614C250.481 231.36 250.074 231.233 249.532 231.233H247.677V234.03Z" fill="white"/>
</g>
<defs>
<clipPath id="clip0_3_4041">
<rect width="140.175" height="295.006" fill="white" transform="translate(0.374542 -19.2528)"/>
</clipPath>
<clipPath id="clip1_3_4041">
<rect width="140.175" height="295.006" fill="white" transform="translate(150.197 -19.2528)"/>
</clipPath>
</defs>
</svg>
